<svg width="64" height="64" viewBox="0 0 527 532" fill="none" aria-hidden="true" xmlns="http://www.w3.org/2000/svg"><path d="M263.5 0C117.981 0 0 119.103 0 266.005C0 412.907 117.981 532.009 263.5 532.009C409.019 532.009 527 412.907 527 266.005C527 119.103 409.032 0 263.5 0ZM144.829 455.189C129.938 465.866 100.131 447.713 72.0362 407.789C43.941 367.865 31.7978 321.483 46.7014 310.805C61.5917 300.128 93.5886 325.475 121.697 365.4C149.792 405.324 159.746 444.511 144.842 455.189H144.829ZM415.296 435.829C347.732 500.003 266.247 506.487 235.1 483.738C206.022 462.49 220.846 404.359 270.361 355.271C331.289 294.862 413.558 273.976 447.957 294.809C483.55 316.379 476.317 377.859 415.296 435.829Z" fill="#0A3F37"></path></svg>
